<?xml version="1.0" encoding="UTF-8" standalone="no"?>
<svg
   width="500"
   zoomAndPan="magnify"
   viewBox="0 0 375 374.999991"
   height="500"
   preserveAspectRatio="xMidYMid meet"
   version="1.0"
   id="svg65"
   sodipodi:docname="jfinpos.svg"
   inkscape:version="1.4 (e7c3feb1, 2024-10-09)"
   xmlns:inkscape="http://www.inkscape.org/namespaces/inkscape"
   xmlns:sodipodi="http://sodipodi.sourceforge.net/DTD/sodipodi-0.dtd"
   xmlns="http://www.w3.org/2000/svg"
   xmlns:svg="http://www.w3.org/2000/svg">
  <sodipodi:namedview
     id="namedview65"
     pagecolor="#ffffff"
     bordercolor="#666666"
     borderopacity="1.0"
     inkscape:showpageshadow="2"
     inkscape:pageopacity="0.0"
     inkscape:pagecheckerboard="0"
     inkscape:deskcolor="#d1d1d1"
     inkscape:zoom="1.804"
     inkscape:cx="249.72284"
     inkscape:cy="357.81596"
     inkscape:window-width="1664"
     inkscape:window-height="1140"
     inkscape:window-x="2881"
     inkscape:window-y="105"
     inkscape:window-maximized="0"
     inkscape:current-layer="svg65" />
  <defs
     id="defs2">
    <g
       id="g1" />
    <clipPath
       id="aa6042552a">
      <path
         d="M 205 58 L 270.195312 58 L 270.195312 190.867188 L 205 190.867188 Z M 205 58 "
         clip-rule="nonzero"
         id="path1" />
    </clipPath>
    <clipPath
       id="7b3f281e26">
      <path
         d="M 118 37.117188 L 239 37.117188 L 239 107 L 118 107 Z M 118 37.117188 "
         clip-rule="nonzero"
         id="path2" />
    </clipPath>
  </defs>
  <g
     clip-path="url(#aa6042552a)"
     id="g3">
    <path
       fill="#ffffff"
       d="M 264.105469 124.929688 L 270.640625 113.644531 L 238.734375 58.511719 L 218.34375 93.941406 C 217.714844 93.824219 217.078125 93.746094 216.421875 93.746094 C 210.671875 93.746094 205.992188 98.425781 205.992188 104.175781 C 205.992188 109.925781 210.671875 114.605469 216.421875 114.605469 C 217.078125 114.605469 217.714844 114.527344 218.34375 114.410156 L 240.285156 152.304688 L 230.335938 169.523438 C 226.121094 168.753906 221.691406 170.625 219.425781 174.546875 C 216.5625 179.523438 218.273438 185.914062 223.25 188.785156 C 224.882812 189.738281 226.679688 190.183594 228.445312 190.183594 C 232.058594 190.183594 235.5625 188.304688 237.496094 184.96875 C 239.761719 181.046875 239.152344 176.269531 236.363281 173 L 248.328125 152.308594 L 224.34375 110.898438 C 225.886719 109.078125 226.859375 106.753906 226.859375 104.183594 C 226.859375 101.609375 225.894531 99.289062 224.34375 97.472656 L 238.753906 72.421875 L 262.609375 113.652344 L 258.078125 121.472656 C 255.714844 121.035156 253.203125 121.355469 250.972656 122.65625 C 245.988281 125.535156 244.28125 131.929688 247.160156 136.910156 C 249.09375 140.238281 252.605469 142.109375 256.214844 142.109375 C 257.988281 142.109375 259.78125 141.664062 261.414062 140.714844 C 266.394531 137.835938 268.097656 131.445312 265.21875 126.464844 C 264.898438 125.910156 264.515625 125.410156 264.113281 124.9375 Z M 231.476562 181.492188 C 230.507812 183.144531 228.367188 183.703125 226.71875 182.769531 C 225.066406 181.8125 224.496094 179.675781 225.441406 178.015625 C 226.085938 176.902344 227.261719 176.277344 228.464844 176.277344 C 229.054688 176.277344 229.652344 176.421875 230.195312 176.734375 C 231.859375 177.703125 232.429688 179.824219 231.476562 181.492188 Z M 212.945312 104.183594 C 212.945312 102.269531 214.511719 100.707031 216.421875 100.707031 C 218.335938 100.707031 219.898438 102.269531 219.898438 104.183594 C 219.898438 106.09375 218.335938 107.660156 216.421875 107.660156 C 214.511719 107.660156 212.945312 106.09375 212.945312 104.183594 Z M 259.539062 132.578125 C 259.300781 133.476562 258.730469 134.21875 257.929688 134.691406 C 256.253906 135.628906 254.128906 135.074219 253.167969 133.417969 C 252.210938 131.757812 252.777344 129.628906 254.441406 128.664062 C 254.992188 128.351562 255.589844 128.203125 256.179688 128.203125 C 257.382812 128.203125 258.550781 128.824219 259.195312 129.9375 C 259.65625 130.742188 259.789062 131.679688 259.542969 132.578125 Z M 259.539062 132.578125 "
       fill-opacity="1"
       fill-rule="nonzero"
       id="path3" />
  </g>
  <g
     clip-path="url(#7b3f281e26)"
     id="g4">
    <path
       fill="#ffffff"
       d="M 169.011719 106.234375 C 174.761719 106.234375 179.441406 101.554688 179.441406 95.804688 C 179.441406 93.226562 178.460938 90.890625 176.902344 89.066406 L 198.75 51.070312 L 218.667969 51.070312 C 220.109375 55.109375 223.933594 58.023438 228.457031 58.023438 C 234.207031 58.023438 238.886719 53.34375 238.886719 47.59375 C 238.886719 41.84375 234.207031 37.164062 228.457031 37.164062 C 223.933594 37.164062 220.109375 40.078125 218.667969 44.117188 L 194.730469 44.117188 L 170.894531 85.5625 C 170.285156 85.453125 169.652344 85.375 169.003906 85.375 C 164.484375 85.375 160.667969 88.28125 159.222656 92.308594 L 130.390625 92.308594 L 154.1875 51.070312 L 163.253906 51.070312 C 164.089844 53.40625 165.589844 55.414062 167.761719 56.660156 C 169.359375 57.59375 171.144531 58.066406 172.953125 58.066406 C 173.859375 58.066406 174.777344 57.941406 175.671875 57.703125 C 178.371094 56.980469 180.617188 55.242188 182.007812 52.828125 C 184.871094 47.84375 183.152344 41.460938 178.175781 38.597656 C 175.761719 37.199219 172.945312 36.832031 170.261719 37.554688 C 167.566406 38.277344 165.320312 40.015625 163.9375 42.421875 C 163.617188 42.964844 163.375 43.539062 163.164062 44.117188 L 150.167969 44.117188 L 118.347656 99.261719 L 159.222656 99.261719 C 160.65625 103.308594 164.484375 106.234375 169.019531 106.234375 Z M 228.457031 44.117188 C 230.371094 44.117188 231.933594 45.683594 231.933594 47.59375 C 231.933594 49.507812 230.371094 51.070312 228.457031 51.070312 C 226.546875 51.070312 224.980469 49.507812 224.980469 47.59375 C 224.980469 45.683594 226.546875 44.117188 228.457031 44.117188 Z M 169.957031 45.890625 C 170.417969 45.089844 171.167969 44.515625 172.0625 44.269531 C 172.363281 44.195312 172.667969 44.152344 172.976562 44.152344 C 173.574219 44.152344 174.164062 44.304688 174.699219 44.609375 C 175.5 45.078125 176.074219 45.828125 176.3125 46.726562 C 176.554688 47.621094 176.429688 48.558594 175.964844 49.367188 C 175.503906 50.167969 174.753906 50.742188 173.859375 50.988281 C 172.953125 51.214844 172.023438 51.105469 171.214844 50.632812 C 170.417969 50.171875 169.839844 49.421875 169.597656 48.527344 C 169.359375 47.628906 169.476562 46.691406 169.949219 45.882812 Z M 169.011719 92.328125 C 170.925781 92.328125 172.488281 93.894531 172.488281 95.804688 C 172.488281 97.71875 170.925781 99.28125 169.011719 99.28125 C 167.101562 99.28125 165.535156 97.71875 165.535156 95.804688 C 165.535156 93.894531 167.101562 92.328125 169.011719 92.328125 Z M 169.011719 92.328125 "
       fill-opacity="1"
       fill-rule="nonzero"
       id="path4" />
  </g>
  <path
     fill="#ffffff"
     d="M 195.917969 141.046875 C 195.917969 135.296875 191.238281 130.617188 185.488281 130.617188 C 180.964844 130.617188 177.140625 133.53125 175.699219 137.570312 L 131.863281 137.632812 L 121.914062 120.417969 C 124.695312 117.148438 125.3125 112.378906 123.046875 108.457031 C 120.183594 103.488281 113.792969 101.785156 108.808594 104.636719 C 103.828125 107.511719 102.117188 113.902344 104.992188 118.886719 C 106.917969 122.226562 110.425781 124.101562 114.042969 124.101562 C 114.660156 124.101562 115.273438 123.976562 115.886719 123.867188 L 127.867188 144.59375 L 175.707031 144.53125 C 177.148438 148.570312 180.972656 151.484375 185.496094 151.484375 C 186.152344 151.484375 186.785156 151.40625 187.410156 151.289062 L 201.800781 176.296875 L 154.1875 176.296875 L 149.667969 168.488281 C 151.242188 166.660156 152.226562 164.3125 152.226562 161.710938 C 152.226562 155.96875 147.535156 151.296875 141.785156 151.296875 C 136.035156 151.308594 131.363281 155.988281 131.371094 161.738281 C 131.371094 164.519531 132.453125 167.140625 134.421875 169.109375 C 136.390625 171.074219 139.003906 172.152344 141.785156 172.152344 L 141.804688 172.152344 C 142.4375 172.152344 143.042969 172.078125 143.648438 171.964844 L 150.183594 183.25 L 213.816406 183.25 L 193.402344 147.769531 C 194.953125 145.949219 195.917969 143.621094 195.917969 141.054688 Z M 111.003906 115.417969 C 110.046875 113.757812 110.617188 111.621094 112.277344 110.664062 C 113.910156 109.683594 116.066406 110.265625 117.03125 111.933594 C 117.992188 113.589844 117.421875 115.722656 115.753906 116.691406 C 114.105469 117.636719 111.957031 117.074219 111.003906 115.417969 Z M 141.792969 165.195312 C 140.867188 165.195312 139.992188 164.832031 139.335938 164.179688 C 138.675781 163.519531 138.324219 162.648438 138.324219 161.71875 C 138.324219 159.796875 139.878906 158.234375 141.792969 158.234375 C 143.703125 158.234375 145.269531 159.796875 145.273438 161.703125 C 145.273438 163.621094 143.71875 165.1875 141.796875 165.1875 Z M 182.015625 141.046875 C 182.015625 139.132812 183.578125 137.570312 185.488281 137.570312 C 187.402344 137.570312 188.964844 139.132812 188.964844 141.046875 C 188.964844 142.957031 187.402344 144.523438 185.488281 144.523438 C 183.578125 144.523438 182.015625 142.957031 182.015625 141.046875 Z M 182.015625 141.046875 "
     fill-opacity="1"
     fill-rule="nonzero"
     id="path5" />
  <g
     fill="#ffffff"
     fill-opacity="1"
     id="g8">
    <g
       transform="translate(44.635965, 270.071815)"
       id="g7">
      <g
         id="g6">
        <path
           d="M 21.40625 -18.078125 L 21.40625 -48.453125 L 27.96875 -48.453125 L 27.96875 -17.6875 C 27.96875 -11.300781 26.578125 -6.648438 23.796875 -3.734375 C 21.015625 -0.828125 16.507812 0.625 10.28125 0.625 C 8.53125 0.625 6.90625 0.546875 5.40625 0.390625 C 3.914062 0.234375 2.550781 -0.0234375 1.3125 -0.390625 L 1.3125 -6.40625 C 2.757812 -6.101562 4.113281 -5.882812 5.375 -5.75 C 6.632812 -5.625 7.984375 -5.5625 9.421875 -5.5625 C 13.910156 -5.5625 17.03125 -6.488281 18.78125 -8.34375 C 20.53125 -10.195312 21.40625 -13.441406 21.40625 -18.078125 Z M 21.40625 -18.078125 "
           id="path6" />
      </g>
    </g>
  </g>
  <g
     fill="#ffffff"
     fill-opacity="1"
     id="g11">
    <g
       transform="translate(79.55873, 270.071815)"
       id="g10">
      <g
         id="g9">
        <path
           d="M 12.125 -19.9375 L 12.125 0 L 5.5625 0 L 5.5625 -48.453125 L 36.625 -48.453125 L 36.625 -42.5 L 12.125 -42.5 L 12.125 -25.734375 L 33.765625 -25.734375 L 33.765625 -19.9375 Z M 12.125 -19.9375 "
           id="path8" />
      </g>
    </g>
  </g>
  <g
     fill="#ffffff"
     fill-opacity="1"
     id="g14">
    <g
       transform="translate(119.8126, 270.071815)"
       id="g13">
      <g
         id="g12">
        <path
           d="M 12.125 -48.453125 L 12.125 0 L 5.5625 0 L 5.5625 -48.453125 Z M 12.125 -48.453125 "
           id="path11" />
      </g>
    </g>
  </g>
  <g
     fill="#ffffff"
     fill-opacity="1"
     id="g17">
    <g
       transform="translate(139.2829, 270.071815)"
       id="g16">
      <g
         id="g15">
        <path
           d="M 45.203125 -48.453125 L 45.203125 0 L 38.5625 0 L 11.75 -37.703125 L 11.75 0 L 5.5625 0 L 5.5625 -48.453125 L 12.203125 -48.453125 L 39.015625 -10.203125 L 39.015625 -48.453125 Z M 45.203125 -48.453125 "
           id="path14" />
      </g>
    </g>
  </g>
  <g
     fill="#ffffff"
     fill-opacity="1"
     id="g20">
    <g
       transform="translate(191.821489, 270.071815)"
       id="g19">
      <g
         id="g18">
        <path
           d="M 12.125 -15.6875 L 12.125 0 L 5.5625 0 L 5.5625 -48.453125 L 22.015625 -48.453125 C 28.867188 -48.453125 33.773438 -47.210938 36.734375 -44.734375 C 39.703125 -42.265625 41.1875 -38.222656 41.1875 -32.609375 C 41.1875 -26.890625 39.640625 -22.640625 36.546875 -19.859375 C 33.453125 -17.078125 28.6875 -15.6875 22.25 -15.6875 Z M 34.53125 -32.609375 C 34.53125 -36.160156 33.566406 -38.695312 31.640625 -40.21875 C 29.710938 -41.738281 26.503906 -42.5 22.015625 -42.5 L 12.125 -42.5 L 12.125 -21.484375 L 22.015625 -21.484375 C 26.503906 -21.484375 29.710938 -22.359375 31.640625 -24.109375 C 33.566406 -25.859375 34.53125 -28.691406 34.53125 -32.609375 Z M 34.53125 -32.609375 "
           id="path17" />
      </g>
    </g>
  </g>
  <g
     fill="#ffffff"
     fill-opacity="1"
     id="g23">
    <g
       transform="translate(237.097416, 270.071815)"
       id="g22">
      <g
         id="g21">
        <path
           d="M 46.671875 -24.34375 C 46.671875 -15.53125 44.984375 -9.164062 41.609375 -5.25 C 38.234375 -1.332031 32.734375 0.625 25.109375 0.625 C 16.921875 0.625 11.269531 -1.191406 8.15625 -4.828125 C 5.039062 -8.460938 3.484375 -14.96875 3.484375 -24.34375 C 3.484375 -33.09375 5.179688 -39.425781 8.578125 -43.34375 C 11.972656 -47.257812 17.484375 -49.21875 25.109375 -49.21875 C 33.296875 -49.21875 38.9375 -47.398438 42.03125 -43.765625 C 45.125 -40.140625 46.671875 -33.664062 46.671875 -24.34375 Z M 12.4375 -10.359375 C 13.414062 -8.609375 14.859375 -7.367188 16.765625 -6.640625 C 18.671875 -5.921875 21.453125 -5.5625 25.109375 -5.5625 C 30.828125 -5.5625 34.742188 -6.9375 36.859375 -9.6875 C 38.972656 -12.445312 40.03125 -17.332031 40.03125 -24.34375 C 40.03125 -27.84375 39.847656 -30.710938 39.484375 -32.953125 C 39.117188 -35.191406 38.550781 -37.007812 37.78125 -38.40625 C 36.800781 -40.15625 35.367188 -41.398438 33.484375 -42.140625 C 31.609375 -42.890625 28.816406 -43.265625 25.109375 -43.265625 C 19.335938 -43.265625 15.394531 -41.875 13.28125 -39.09375 C 11.175781 -36.3125 10.125 -31.394531 10.125 -24.34375 C 10.125 -20.832031 10.300781 -17.957031 10.65625 -15.71875 C 11.019531 -13.476562 11.613281 -11.691406 12.4375 -10.359375 Z M 12.4375 -10.359375 "
           id="path20" />
      </g>
    </g>
  </g>
  <g
     fill="#ffffff"
     fill-opacity="1"
     id="g26">
    <g
       transform="translate(289.017896, 270.071815)"
       id="g25">
      <g
         id="g24">
        <path
           d="M 24.265625 -20.328125 L 12.515625 -23.109375 C 9.273438 -23.878906 6.929688 -25.203125 5.484375 -27.078125 C 4.046875 -28.960938 3.328125 -31.578125 3.328125 -34.921875 C 3.328125 -39.816406 4.726562 -43.421875 7.53125 -45.734375 C 10.34375 -48.054688 14.707031 -49.21875 20.625 -49.21875 C 23.101562 -49.21875 25.332031 -49.097656 27.3125 -48.859375 C 29.289062 -48.628906 31.132812 -48.285156 32.84375 -47.828125 L 32.84375 -41.875 C 30.675781 -42.394531 28.613281 -42.753906 26.65625 -42.953125 C 24.695312 -43.160156 22.660156 -43.265625 20.546875 -43.265625 C 16.585938 -43.265625 13.804688 -42.6875 12.203125 -41.53125 C 10.609375 -40.375 9.8125 -38.328125 9.8125 -35.390625 C 9.8125 -33.535156 10.179688 -32.128906 10.921875 -31.171875 C 11.671875 -30.222656 12.898438 -29.539062 14.609375 -29.125 L 26.265625 -26.34375 C 30.390625 -25.363281 33.132812 -23.984375 34.5 -22.203125 C 35.863281 -20.429688 36.546875 -17.691406 36.546875 -13.984375 C 36.546875 -8.679688 35.164062 -4.921875 32.40625 -2.703125 C 29.65625 -0.484375 25.289062 0.625 19.3125 0.625 C 16.175781 0.625 13.148438 0.414062 10.234375 0 C 7.328125 -0.414062 5.023438 -0.957031 3.328125 -1.625 L 3.328125 -7.796875 C 5.742188 -7.078125 8.316406 -6.523438 11.046875 -6.140625 C 13.773438 -5.753906 16.53125 -5.5625 19.3125 -5.5625 C 23.175781 -5.5625 25.878906 -6.128906 27.421875 -7.265625 C 28.972656 -8.398438 29.75 -10.585938 29.75 -13.828125 C 29.75 -15.835938 29.375 -17.289062 28.625 -18.1875 C 27.875 -19.09375 26.421875 -19.804688 24.265625 -20.328125 Z M 24.265625 -20.328125 "
           id="path23" />
      </g>
    </g>
  </g>
  <g
     fill="#ffffff"
     fill-opacity="1"
     id="g29">
    <g
       transform="translate(73.88007, 315.606988)"
       id="g28">
      <g
         id="g27">
        <path
           d="M 10.671875 -1.875 L 10.671875 0 L 1.6875 0 L 1.6875 -14.671875 L 3.671875 -14.671875 L 3.671875 -1.875 Z M 10.671875 -1.875 "
           id="path26" />
      </g>
    </g>
  </g>
  <g
     fill="#ffffff"
     fill-opacity="1"
     id="g32">
    <g
       transform="translate(91.12724, 315.606988)"
       id="g31">
      <g
         id="g30">
        <path
           d="M 6.671875 0 L 4.6875 0 L 4.6875 -12.9375 L 0.34375 -12.40625 L 0.34375 -14.109375 L 6.671875 -14.90625 Z M 6.671875 0 "
           id="path29" />
      </g>
    </g>
  </g>
  <g
     fill="#ffffff"
     fill-opacity="1"
     id="g35">
    <g
       transform="translate(105.847583, 315.606988)"
       id="g34">
      <g
         id="g33" />
    </g>
  </g>
  <g
     fill="#ffffff"
     fill-opacity="1"
     id="g38">
    <g
       transform="translate(116.052423, 315.606988)"
       id="g37">
      <g
         id="g36">
        <path
           d="M 12.21875 -4.21875 C 12.21875 -2.71875 11.8125 -1.640625 11 -0.984375 C 10.1875 -0.328125 8.882812 0 7.09375 0 L 1.6875 0 L 1.6875 -14.671875 L 7.0625 -14.671875 C 8.6875 -14.671875 9.84375 -14.394531 10.53125 -13.84375 C 11.21875 -13.300781 11.5625 -12.367188 11.5625 -11.046875 C 11.5625 -10.097656 11.394531 -9.363281 11.0625 -8.84375 C 10.726562 -8.332031 10.160156 -7.984375 9.359375 -7.796875 C 10.316406 -7.671875 11.03125 -7.3125 11.5 -6.71875 C 11.976562 -6.125 12.21875 -5.289062 12.21875 -4.21875 Z M 9.71875 -10.765625 C 9.71875 -11.578125 9.519531 -12.140625 9.125 -12.453125 C 8.738281 -12.773438 8.0625 -12.9375 7.09375 -12.9375 L 3.671875 -12.9375 L 3.671875 -8.359375 L 7.09375 -8.359375 C 8.03125 -8.359375 8.703125 -8.546875 9.109375 -8.921875 C 9.515625 -9.296875 9.71875 -9.910156 9.71875 -10.765625 Z M 10.296875 -4.328125 C 10.296875 -5.203125 10.050781 -5.8125 9.5625 -6.15625 C 9.082031 -6.5 8.257812 -6.671875 7.09375 -6.671875 L 3.671875 -6.671875 L 3.671875 -1.78125 L 7.09375 -1.78125 C 8.257812 -1.78125 9.082031 -1.96875 9.5625 -2.34375 C 10.050781 -2.71875 10.296875 -3.378906 10.296875 -4.328125 Z M 10.296875 -4.328125 "
           id="path35" />
      </g>
    </g>
  </g>
  <g
     fill="#ffffff"
     fill-opacity="1"
     id="g41">
    <g
       transform="translate(135.358463, 315.606988)"
       id="g40">
      <g
         id="g39">
        <path
           d="M 10.671875 -1.875 L 10.671875 0 L 1.6875 0 L 1.6875 -14.671875 L 3.671875 -14.671875 L 3.671875 -1.875 Z M 10.671875 -1.875 "
           id="path38" />
      </g>
    </g>
  </g>
  <g
     fill="#ffffff"
     fill-opacity="1"
     id="g44">
    <g
       transform="translate(152.605636, 315.606988)"
       id="g43">
      <g
         id="g42">
        <path
           d="M 14.140625 -7.375 C 14.140625 -4.707031 13.628906 -2.78125 12.609375 -1.59375 C 11.585938 -0.40625 9.921875 0.1875 7.609375 0.1875 C 5.128906 0.1875 3.414062 -0.359375 2.46875 -1.453125 C 1.519531 -2.554688 1.046875 -4.53125 1.046875 -7.375 C 1.046875 -10.03125 1.5625 -11.945312 2.59375 -13.125 C 3.625 -14.3125 5.296875 -14.90625 7.609375 -14.90625 C 10.085938 -14.90625 11.796875 -14.351562 12.734375 -13.25 C 13.671875 -12.15625 14.140625 -10.195312 14.140625 -7.375 Z M 3.765625 -3.140625 C 4.066406 -2.609375 4.503906 -2.234375 5.078125 -2.015625 C 5.648438 -1.796875 6.492188 -1.6875 7.609375 -1.6875 C 9.335938 -1.6875 10.519531 -2.101562 11.15625 -2.9375 C 11.800781 -3.769531 12.125 -5.25 12.125 -7.375 C 12.125 -8.4375 12.066406 -9.304688 11.953125 -9.984375 C 11.847656 -10.660156 11.679688 -11.210938 11.453125 -11.640625 C 11.148438 -12.160156 10.710938 -12.535156 10.140625 -12.765625 C 9.578125 -12.992188 8.734375 -13.109375 7.609375 -13.109375 C 5.859375 -13.109375 4.660156 -12.6875 4.015625 -11.84375 C 3.378906 -11 3.0625 -9.507812 3.0625 -7.375 C 3.0625 -6.3125 3.113281 -5.441406 3.21875 -4.765625 C 3.332031 -4.085938 3.515625 -3.546875 3.765625 -3.140625 Z M 3.765625 -3.140625 "
           id="path41" />
      </g>
    </g>
  </g>
  <g
     fill="#ffffff"
     fill-opacity="1"
     id="g47">
    <g
       transform="translate(173.993946, 315.606988)"
       id="g46">
      <g
         id="g45">
        <path
           d="M 7.515625 -1.6875 C 8.148438 -1.6875 8.820312 -1.757812 9.53125 -1.90625 C 10.25 -2.050781 10.910156 -2.25 11.515625 -2.5 L 11.515625 -0.71875 C 10.660156 -0.375 9.898438 -0.132812 9.234375 0 C 8.566406 0.125 7.875 0.1875 7.15625 0.1875 C 4.914062 0.1875 3.332031 -0.390625 2.40625 -1.546875 C 1.488281 -2.710938 1.03125 -4.65625 1.03125 -7.375 C 1.03125 -9.976562 1.5625 -11.882812 2.625 -13.09375 C 3.695312 -14.300781 5.40625 -14.90625 7.75 -14.90625 C 8.46875 -14.90625 9.109375 -14.890625 9.671875 -14.859375 C 10.234375 -14.828125 10.738281 -14.773438 11.1875 -14.703125 L 11.1875 -12.9375 C 10.644531 -13 10.09375 -13.039062 9.53125 -13.0625 C 8.976562 -13.09375 8.382812 -13.109375 7.75 -13.109375 C 6 -13.109375 4.78125 -12.675781 4.09375 -11.8125 C 3.40625 -10.945312 3.0625 -9.46875 3.0625 -7.375 C 3.0625 -5.25 3.375 -3.769531 4 -2.9375 C 4.625 -2.101562 5.796875 -1.6875 7.515625 -1.6875 Z M 7.515625 -1.6875 "
           id="path44" />
      </g>
    </g>
  </g>
  <g
     fill="#ffffff"
     fill-opacity="1"
     id="g50">
    <g
       transform="translate(192.317349, 315.606988)"
       id="g49">
      <g
         id="g48">
        <path
           d="M 7.296875 -7.515625 L 13.53125 0 L 10.953125 0 L 5.59375 -6.578125 L 3.671875 -6.578125 L 3.671875 0 L 1.6875 0 L 1.6875 -14.671875 L 3.671875 -14.671875 L 3.671875 -8.328125 L 5.59375 -8.328125 L 10.859375 -14.671875 L 13.296875 -14.671875 Z M 7.296875 -7.515625 "
           id="path47" />
      </g>
    </g>
  </g>
  <g
     fill="#ffffff"
     fill-opacity="1"
     id="g53">
    <g
       transform="translate(212.067928, 315.606988)"
       id="g52">
      <g
         id="g51">
        <path
           d="M 7.515625 -1.6875 C 8.148438 -1.6875 8.820312 -1.757812 9.53125 -1.90625 C 10.25 -2.050781 10.910156 -2.25 11.515625 -2.5 L 11.515625 -0.71875 C 10.660156 -0.375 9.898438 -0.132812 9.234375 0 C 8.566406 0.125 7.875 0.1875 7.15625 0.1875 C 4.914062 0.1875 3.332031 -0.390625 2.40625 -1.546875 C 1.488281 -2.710938 1.03125 -4.65625 1.03125 -7.375 C 1.03125 -9.976562 1.5625 -11.882812 2.625 -13.09375 C 3.695312 -14.300781 5.40625 -14.90625 7.75 -14.90625 C 8.46875 -14.90625 9.109375 -14.890625 9.671875 -14.859375 C 10.234375 -14.828125 10.738281 -14.773438 11.1875 -14.703125 L 11.1875 -12.9375 C 10.644531 -13 10.09375 -13.039062 9.53125 -13.0625 C 8.976562 -13.09375 8.382812 -13.109375 7.75 -13.109375 C 6 -13.109375 4.78125 -12.675781 4.09375 -11.8125 C 3.40625 -10.945312 3.0625 -9.46875 3.0625 -7.375 C 3.0625 -5.25 3.375 -3.769531 4 -2.9375 C 4.625 -2.101562 5.796875 -1.6875 7.515625 -1.6875 Z M 7.515625 -1.6875 "
           id="path50" />
      </g>
    </g>
  </g>
  <g
     fill="#ffffff"
     fill-opacity="1"
     id="g56">
    <g
       transform="translate(230.391331, 315.606988)"
       id="g55">
      <g
         id="g54">
        <path
           d="M 3.671875 0 L 1.6875 0 L 1.6875 -14.671875 L 3.671875 -14.671875 L 3.671875 -8.359375 L 11.359375 -8.359375 L 11.359375 -14.671875 L 13.34375 -14.671875 L 13.34375 0 L 11.359375 0 L 11.359375 -6.53125 L 3.671875 -6.53125 Z M 3.671875 0 "
           id="path53" />
      </g>
    </g>
  </g>
  <g
     fill="#ffffff"
     fill-opacity="1"
     id="g59">
    <g
       transform="translate(251.61588, 315.606988)"
       id="g58">
      <g
         id="g57">
        <path
           d="M 2.296875 0 L 0.1875 0 L 5.984375 -14.671875 L 8.046875 -14.671875 L 13.78125 0 L 11.6875 0 L 10.34375 -3.53125 L 3.625 -3.53125 Z M 6.96875 -12.84375 C 6.8125 -12.300781 6.628906 -11.722656 6.421875 -11.109375 C 6.210938 -10.503906 6 -9.898438 5.78125 -9.296875 L 4.28125 -5.296875 L 9.6875 -5.296875 L 8.1875 -9.296875 C 7.875 -10.148438 7.628906 -10.84375 7.453125 -11.375 C 7.273438 -11.90625 7.113281 -12.394531 6.96875 -12.84375 Z M 6.96875 -12.84375 "
           id="path56" />
      </g>
    </g>
  </g>
  <g
     fill="#ffffff"
     fill-opacity="1"
     id="g62">
    <g
       transform="translate(271.810994, 315.606988)"
       id="g61">
      <g
         id="g60">
        <path
           d="M 3.671875 -14.671875 L 3.671875 0 L 1.6875 0 L 1.6875 -14.671875 Z M 3.671875 -14.671875 "
           id="path59" />
      </g>
    </g>
  </g>
  <g
     fill="#ffffff"
     fill-opacity="1"
     id="g65">
    <g
       transform="translate(283.37283, 315.606988)"
       id="g64">
      <g
         id="g63">
        <path
           d="M 13.6875 -14.671875 L 13.6875 0 L 11.6875 0 L 3.5625 -11.421875 L 3.5625 0 L 1.6875 0 L 1.6875 -14.671875 L 3.703125 -14.671875 L 11.8125 -3.09375 L 11.8125 -14.671875 Z M 13.6875 -14.671875 "
           id="path62" />
      </g>
    </g>
  </g>
</svg>
